<?xml version="1.0" encoding="utf-8"?>
<!-- Generator: Adobe Illustrator 22.1.0, SVG Export Plug-In . SVG Version: 6.00 Build 0)  -->
<svg version="1.1" id="Layer_1" xmlns="http://www.w3.org/2000/svg" xmlns:xlink="http://www.w3.org/1999/xlink" x="0px" y="0px"
	 viewBox="0 0 41 36" style="enable-background:new 0 0 41 36;" xml:space="preserve">
<style type="text/css">
	.st0{fill:#FE4C54;}
</style>
<title>Group 2</title>
<desc>Created with Sketch.</desc>
<g>
	<circle id="Oval-7-Copy-9" class="st0" cx="13.9" cy="3.8" r="0.5"/>
	<circle id="Oval-7-Copy-10" class="st0" cx="15.3" cy="3.8" r="0.5"/>
	<circle id="Oval-7-Copy-11" class="st0" cx="16.7" cy="3.8" r="0.5"/>
	<circle id="Oval-7-Copy-9_2_" class="st0" cx="8.9" cy="8.3" r="0.5"/>
	<circle id="Oval-7-Copy-10_2_" class="st0" cx="10.4" cy="8.3" r="0.5"/>
	<circle id="Oval-7-Copy-11_2_" class="st0" cx="11.8" cy="8.3" r="0.5"/>
	<circle id="Oval-7-Copy-9_3_" class="st0" cx="4" cy="12.8" r="0.5"/>
	<circle id="Oval-7-Copy-10_3_" class="st0" cx="5.5" cy="12.8" r="0.5"/>
	<circle id="Oval-7-Copy-11_3_" class="st0" cx="6.9" cy="12.8" r="0.5"/>
	<path class="st0" d="M38.2,0.8H12.6c-1.1,0-2,0.9-2,2v2.5H7.7c-1.1,0-2,0.9-2,2v2.5H3.6c-1.5,0-2.8,1.3-2.8,2.8v19.7
		c0,1.6,1.2,2.8,2.8,2.8h24.3c1.5,0,2.8-1.3,2.8-2.8v-2.1h2.8c1.1,0,2-0.9,2-2v-2.9h2.8c1.1,0,2-0.9,2-2V2.8
		C40.2,1.7,39.3,0.8,38.2,0.8z M3.6,11.4h24.3c0.7,0,1.3,0.6,1.3,1.3V14H2.3v-1.3C2.3,11.9,2.9,11.4,3.6,11.4z M27.9,33.7H3.6
		c-0.7,0-1.3-0.6-1.3-1.3V15.5h26.9v16.9C29.1,33.1,28.6,33.7,27.9,33.7z M33.9,28.3c0,0.3-0.2,0.5-0.5,0.5h-2.8V12.7
		c0-1.6-1.2-2.8-2.8-2.8H7.2V7.3c0-0.3,0.2-0.5,0.5-0.5h25.7c0.3,0,0.5,0.2,0.5,0.5V28.3z M38.7,23.4c0,0.3-0.2,0.5-0.5,0.5h-2.8
		V7.3c0-1.1-0.9-2-2-2H12.1V2.8c0-0.3,0.2-0.5,0.5-0.5h25.6c0.3,0,0.5,0.2,0.5,0.5V23.4z"/>
	<path id="Shape" class="st0" d="M9.5,21c-0.2,0.2-0.2,0.6,0,0.9l2.7,2.7l-2.7,2.7c-0.2,0.2-0.2,0.4-0.2,0.6
		c0.1,0.2,0.2,0.4,0.4,0.4c0.2,0.1,0.4,0,0.6-0.2l3.1-3.1c0.2-0.2,0.2-0.6,0-0.9L10.3,21C10.1,20.7,9.7,20.7,9.5,21z"/>
	<path id="Shape_1_" class="st0" d="M22.2,24.5h-4.9c-0.3,0-0.6,0.3-0.6,0.6s0.3,0.6,0.6,0.6h4.9c0.3,0,0.6-0.3,0.6-0.6
		S22.6,24.5,22.2,24.5z"/>
</g>
</svg>
